<svg width="34" height="33" viewBox="0 0 34 33" fill="none" xmlns="http://www.w3.org/2000/svg">
<path d="M29.8817 19.9865C31.6717 19.9865 33.1228 18.5355 33.1228 16.7455C33.1228 14.9555 31.6717 13.5044 29.8817 13.5044C28.0917 13.5044 26.6406 14.9555 26.6406 16.7455C26.6406 18.5355 28.0917 19.9865 29.8817 19.9865Z" fill="url(#paint0_linear)"/>
<path d="M3.24106 19.9865C5.03106 19.9865 6.48214 18.5355 6.48214 16.7455C6.48214 14.9555 5.03106 13.5044 3.24106 13.5044C1.45107 13.5044 0 14.9555 0 16.7455C0 18.5355 1.45107 19.9865 3.24106 19.9865Z" fill="url(#paint1_linear)"/>
<path d="M17.0406 6.48214C18.8306 6.48214 20.2817 5.03106 20.2817 3.24107C20.2817 1.45108 18.8306 0 17.0406 0C15.2506 0 13.7995 1.45108 13.7995 3.24107C13.7995 5.03106 15.2506 6.48214 17.0406 6.48214Z" fill="url(#paint2_linear)"/>
<path d="M17.0406 33C18.8306 33 20.2817 31.5489 20.2817 29.7589C20.2817 27.9689 18.8306 26.5178 17.0406 26.5178C15.2506 26.5178 13.7995 27.9689 13.7995 29.7589C13.7995 31.5489 15.2506 33 17.0406 33Z" fill="url(#paint3_linear)"/>
<path d="M23.2767 17.6049V15.3459C23.2767 14.462 23.6941 13.6272 24.4552 13.1361C25.6338 12.3995 26.3459 10.9754 26.1003 9.42853C25.8548 7.93076 24.6517 6.72764 23.1539 6.45755C21.607 6.18746 20.232 6.89951 19.4709 8.05353C19.0044 8.79014 18.145 9.20755 17.2856 9.20755H15.0021C14.1182 9.20755 13.2588 8.76558 12.7923 8.00442C12.0557 6.8013 10.6316 6.06469 9.08471 6.33478C7.46417 6.60487 6.21193 7.95532 6.06461 9.57585C5.94184 11 6.62934 12.2767 7.7097 12.9642C8.44631 13.4308 8.86372 14.2901 8.86372 15.1495V17.5558C8.86372 18.4397 8.44631 19.2745 7.7097 19.741C6.55568 20.5022 5.84363 21.9017 6.08917 23.4241C6.3347 24.9218 7.56238 26.125 9.0356 26.3705C10.5825 26.6406 11.982 25.9285 12.7186 24.75C13.1852 24.0134 14.0445 23.5959 14.9039 23.5959H17.3838C18.2923 23.5959 19.1517 24.0379 19.6182 24.8236C20.453 26.1741 22.1472 26.9598 23.9396 26.3705C24.9954 26.0267 25.8548 25.1674 26.1985 24.1116C26.7633 22.2946 25.9776 20.6004 24.578 19.7901C23.7677 19.4218 23.2767 18.5379 23.2767 17.6049ZM17.5557 22.0491H14.8548C13.9463 22.0491 13.136 21.558 12.645 20.8214C12.3994 20.4531 12.0802 20.1339 11.7119 19.8884C10.9753 19.3727 10.4843 18.5625 10.4843 17.6785V15.1495C10.4843 14.2656 10.9508 13.5044 11.6874 13.0134C12.0557 12.7678 12.3503 12.4732 12.6204 12.1049C13.136 11.3928 13.9218 10.9263 14.8057 10.9263H17.2856C18.1695 10.9263 18.9798 11.4174 19.4709 12.154C19.7164 12.5223 20.0356 12.8415 20.4039 13.087C21.1405 13.6026 21.6316 14.4129 21.6316 15.2968V18.0959C21.6316 18.9062 21.2142 19.6183 20.5758 20.1093C20.2566 20.3549 19.9865 20.625 19.7655 20.9687C19.2499 21.6562 18.4151 22.0491 17.5557 22.0491Z" fill="url(#paint4_linear)"/>
<defs>
<linearGradient id="paint0_linear" x1="26.6295" y1="16.7553" x2="33.1317" y2="16.7553" gradientUnits="userSpaceOnUse">
<stop stop-color="#31C3E3"/>
<stop offset="0.2244" stop-color="#29B2DD"/>
<stop offset="0.5042" stop-color="#1EA4D8"/>
<stop offset="0.7687" stop-color="#149BD6"/>
<stop offset="1" stop-color="#1098D5"/>
</linearGradient>
<linearGradient id="paint1_linear" x1="-0.00461607" y1="16.7553" x2="6.49748" y2="16.7553" gradientUnits="userSpaceOnUse">
<stop stop-color="#31C3E3"/>
<stop offset="0.2244" stop-color="#29B2DD"/>
<stop offset="0.5042" stop-color="#1EA4D8"/>
<stop offset="0.7687" stop-color="#149BD6"/>
<stop offset="1" stop-color="#1098D5"/>
</linearGradient>
<linearGradient id="paint2_linear" x1="13.7821" y1="3.25106" x2="20.2842" y2="3.25106" gradientUnits="userSpaceOnUse">
<stop stop-color="#31C3E3"/>
<stop offset="0.2244" stop-color="#29B2DD"/>
<stop offset="0.5042" stop-color="#1EA4D8"/>
<stop offset="0.7687" stop-color="#149BD6"/>
<stop offset="1" stop-color="#1098D5"/>
</linearGradient>
<linearGradient id="paint3_linear" x1="13.7821" y1="29.7595" x2="20.2842" y2="29.7595" gradientUnits="userSpaceOnUse">
<stop stop-color="#31C3E3"/>
<stop offset="0.2244" stop-color="#29B2DD"/>
<stop offset="0.5042" stop-color="#1EA4D8"/>
<stop offset="0.7687" stop-color="#149BD6"/>
<stop offset="1" stop-color="#1098D5"/>
</linearGradient>
<linearGradient id="paint4_linear" x1="6.0063" y1="16.4958" x2="26.376" y2="16.4958" gradientUnits="userSpaceOnUse">
<stop stop-color="#F58220"/>
<stop offset="0.2088" stop-color="#F37222"/>
<stop offset="0.4942" stop-color="#F16023"/>
<stop offset="0.7641" stop-color="#F05424"/>
<stop offset="1" stop-color="#F04F24"/>
</linearGradient>
</defs>
</svg>
