<svg width="150" height="20" viewBox="0 0 150 20" fill="none" xmlns="http://www.w3.org/2000/svg">
<path d="M13.8008 19.3616C13.6534 19.3616 13.4898 19.3137 13.3122 19.2181C13.1334 19.1224 12.9949 19.0065 12.8967 18.8693L7.21393 11.0673C7.10312 10.93 7.00742 10.8583 6.92809 10.852C6.8475 10.8457 6.79587 10.8419 6.77069 10.8419C6.64729 10.8419 6.53018 10.8834 6.42063 10.9653L2.842 14.0654C2.7186 14.1888 2.61787 14.3462 2.53728 14.5376C2.45669 14.729 2.41765 14.9066 2.41765 15.0715V18.7471C2.41765 18.9121 2.36225 19.0556 2.25144 19.1778C2.14063 19.3012 2.0059 19.3629 1.84598 19.3629H0.554046C0.40672 19.3629 0.277023 19.3012 0.166214 19.1778C0.0554046 19.0531 0 18.9095 0 18.7459V2.62942C0 2.46572 0.0554046 2.32217 0.166214 2.19877C0.277023 2.07537 0.40672 2.01367 0.554046 2.01367H1.84598C2.0059 2.01367 2.14063 2.07537 2.25144 2.19877C2.36225 2.32217 2.41765 2.46572 2.41765 2.62942V10.7802C2.41765 10.9577 2.44158 11.061 2.49069 11.0874C2.5398 11.1151 2.57631 11.129 2.6015 11.129C2.67579 11.129 2.75512 11.095 2.842 11.027L12.7682 2.40402C12.8916 2.29447 13.0478 2.20255 13.2392 2.127C13.4293 2.05145 13.6056 2.01367 13.7655 2.01367H16.2197C16.3922 2.01367 16.4778 2.05523 16.4778 2.13707C16.4778 2.20633 16.4287 2.29447 16.3305 2.40402L9.19086 8.58415C9.06746 8.6937 9.00324 8.7894 8.99695 8.87125C8.99065 8.95309 8.98813 9.0085 8.98813 9.03494C8.98813 9.17219 9.03094 9.30189 9.11783 9.42529L16.1101 18.8693C16.1718 18.965 16.2021 19.0544 16.2021 19.1362C16.2021 19.2873 16.1038 19.3616 15.9074 19.3616H13.8008Z" fill="#F04F24"/>
<path d="M19.0669 17.7613C18.6123 17.4201 18.2245 17.104 17.9047 16.8169L17.406 16.3863C17.2952 16.2767 17.2373 16.171 17.231 16.0677C17.2247 15.9657 17.2222 15.8927 17.2222 15.8524C17.2222 15.729 17.2587 15.6056 17.333 15.4834L18.1628 14.2519C18.261 14.1147 18.3504 14.0429 18.4297 14.0366C18.5091 14.0303 18.5557 14.0265 18.5682 14.0265C18.6916 14.0265 18.8088 14.0744 18.9183 14.1701L19.3061 14.539C19.5643 14.7858 19.8753 15.0591 20.2379 15.36C20.6006 15.661 20.9544 15.9141 21.2994 16.1193C22.2829 16.6809 23.4514 16.9617 24.805 16.9617C25.5794 16.9617 26.3236 16.856 27.0376 16.6432C27.7503 16.4303 28.3346 16.1168 28.7904 15.6988C29.245 15.282 29.4729 14.7506 29.4729 14.1071C29.4729 13.5455 29.2701 13.1212 28.8647 12.8341C28.4592 12.547 27.875 12.3241 27.1119 12.1667C26.3488 12.0093 25.4208 11.8557 24.3265 11.7046C22.9855 11.4993 21.827 11.1984 20.8486 10.8017C19.8703 10.4051 19.1147 9.86743 18.5796 9.18998C18.0444 8.51253 17.7775 7.66761 17.7775 6.65396C17.7775 5.55846 18.0847 4.6317 18.6992 3.8724C19.3137 3.11311 20.1448 2.53136 21.1899 2.12716C22.235 1.72296 23.4036 1.52148 24.6955 1.52148C26.9343 1.52148 28.6745 2.02138 29.9161 3.01993C30.2725 3.30702 30.5684 3.56138 30.8013 3.77922L31.1338 4.12802C31.2446 4.25142 31.3 4.40252 31.3 4.58007C31.3 4.74502 31.2509 4.89487 31.1526 5.03212L30.3039 6.05836C30.1931 6.19561 30.0634 6.26361 29.9161 6.26361C29.7688 6.26361 29.6391 6.20947 29.5283 6.09992L29.2701 5.83297C29.085 5.65542 28.8584 5.45269 28.5877 5.22729C28.3169 5.0019 28.0336 4.80672 27.739 4.64177C26.8537 4.16327 25.8137 3.92277 24.6212 3.92277C23.8216 3.92277 23.1026 4.01847 22.4629 4.20986C21.8233 4.40126 21.3196 4.67829 20.9506 5.04093C20.5817 5.40358 20.3966 5.838 20.3966 6.3442C20.3966 6.95995 20.593 7.446 20.9872 7.80235C21.3813 8.1587 21.9379 8.43572 22.6569 8.63342C23.3771 8.83237 24.2094 8.99229 25.1564 9.11569C26.0542 9.23909 26.918 9.38641 27.749 9.55766C28.5788 9.72892 29.323 9.97572 29.9816 10.2968C30.6389 10.6192 31.1589 11.0561 31.5405 11.6114C31.922 12.1655 32.1121 12.8807 32.1121 13.7571C32.1121 14.879 31.8099 15.8612 31.208 16.7036C30.6049 17.5447 29.7537 18.1995 28.6531 18.6642C27.5526 19.1301 26.2644 19.3618 24.7874 19.3618C22.3874 19.363 20.481 18.8291 19.0669 17.7613Z" fill="#F04F24"/>
<path d="M35.3052 17.7613C34.8506 17.4201 34.4628 17.104 34.1429 16.8169L33.6443 16.3863C33.5335 16.2767 33.4756 16.171 33.4693 16.0677C33.463 15.9657 33.4604 15.8927 33.4604 15.8524C33.4604 15.729 33.497 15.6056 33.5713 15.4834L34.4011 14.2519C34.4993 14.1147 34.5887 14.0429 34.668 14.0366C34.7473 14.0303 34.7939 14.0265 34.8065 14.0265C34.9299 14.0265 35.047 14.0744 35.1566 14.1701L35.5444 14.539C35.8025 14.7858 36.1136 15.0591 36.4762 15.36C36.8389 15.661 37.1927 15.9141 37.5377 16.1193C38.5211 16.6809 39.6897 16.9617 41.0433 16.9617C41.8177 16.9617 42.5619 16.856 43.2759 16.6432C43.9886 16.4303 44.5728 16.1168 45.0287 15.6988C45.4832 15.282 45.7111 14.7506 45.7111 14.1071C45.7111 13.5455 45.5084 13.1212 45.1029 12.8341C44.6975 12.547 44.1132 12.3241 43.3501 12.1667C42.5871 12.0093 41.6591 11.8557 40.5648 11.7046C39.2238 11.4993 38.0653 11.1984 37.0869 10.8017C36.1085 10.4051 35.353 9.86743 34.8179 9.18998C34.2827 8.51253 34.0158 7.66761 34.0158 6.65396C34.0158 5.55846 34.323 4.6317 34.9375 3.8724C35.552 3.11311 36.383 2.53136 37.4282 2.12716C38.4733 1.72296 39.6418 1.52148 40.9338 1.52148C43.1726 1.52148 44.9128 2.02138 46.1544 3.01993C46.5107 3.30702 46.8066 3.56138 47.0396 3.77922L47.372 4.12802C47.4828 4.25142 47.5382 4.40252 47.5382 4.58007C47.5382 4.74502 47.4891 4.89487 47.3909 5.03212L46.5422 6.05836C46.4314 6.19561 46.3017 6.26361 46.1544 6.26361C46.007 6.26361 45.8773 6.20947 45.7665 6.09992L45.5084 5.83297C45.3233 5.65542 45.0966 5.45269 44.8259 5.22729C44.5552 5.0019 44.2719 4.80672 43.9772 4.64177C43.092 4.16327 42.0519 3.92277 40.8595 3.92277C40.0599 3.92277 39.3409 4.01847 38.7012 4.20986C38.0615 4.40126 37.5579 4.67829 37.1889 5.04093C36.82 5.40358 36.6349 5.838 36.6349 6.3442C36.6349 6.95995 36.8313 7.446 37.2254 7.80235C37.6196 8.1587 38.1761 8.43572 38.8951 8.63342C39.6154 8.83237 40.4477 8.99229 41.3946 9.11569C42.2924 9.23909 43.1562 9.38641 43.9873 9.55766C44.8171 9.72892 45.5613 9.97572 46.2198 10.2968C46.8771 10.6192 47.3972 11.0561 47.7787 11.6114C48.1603 12.1655 48.3504 12.8807 48.3504 13.7571C48.3504 14.879 48.0482 15.8612 47.4463 16.7036C46.8431 17.5447 45.9919 18.1995 44.8914 18.6642C43.7909 19.1301 42.5027 19.3618 41.0257 19.3618C38.6269 19.363 36.7205 18.8291 35.3052 17.7613Z" fill="white"/>
<path d="M53.2515 18.5712C52.1132 18.0033 51.2217 17.2201 50.5757 16.2203C49.9298 15.2217 49.6074 14.0847 49.6074 12.8116C49.6074 11.7174 49.8013 10.7415 50.1879 9.88653C50.5757 9.03153 51.1134 8.30624 51.8022 7.71064C52.491 7.11504 53.2818 6.66047 54.1733 6.34567C55.0648 6.03087 56.0092 5.87347 57.0052 5.87347C58.2593 5.87347 59.3977 6.1442 60.4189 6.6844C61.4401 7.22459 62.251 7.96122 62.8541 8.89176C63.2105 9.46722 63.4686 10.2265 63.6286 11.1709L63.7016 11.6847C63.7507 11.9856 63.7759 12.3281 63.7759 12.7109C63.7759 12.8066 63.7721 12.9161 63.7671 13.0396C63.7608 13.163 63.7142 13.2763 63.6286 13.3783C63.5429 13.4803 63.4372 13.5319 63.315 13.5319H52.3008C52.1157 13.5319 52.0238 13.6137 52.0238 13.7787C52.0238 13.8467 52.0352 13.916 52.0603 13.9839L52.282 14.3743C52.4167 14.6488 52.6106 14.9485 52.8624 15.2771C53.1143 15.6058 53.4127 15.879 53.7577 16.0981C54.7915 16.7277 56.0822 17.0425 57.6323 17.0425C58.7756 17.0425 59.7238 16.8713 60.473 16.5288C60.8671 16.3374 61.2046 16.1598 61.4879 15.9949L61.9123 15.7695C61.9866 15.7279 62.0596 15.7078 62.1339 15.7078C62.3064 15.7078 62.4411 15.7972 62.5394 15.9747L63.2772 17.4732C63.0556 17.6243 62.9385 17.6986 62.9272 17.6986C62.9146 17.6986 62.9058 17.7023 62.8995 17.7086C62.8932 17.7162 62.7736 17.7943 62.5394 17.9441C61.7032 18.4642 60.7123 18.8684 59.5689 19.1555C58.7945 19.333 58.0062 19.4224 57.2067 19.4224C55.7095 19.4237 54.3898 19.1391 53.2515 18.5712ZM61.4161 11.4366C61.5018 11.395 61.5446 11.3485 61.5446 11.293C61.5446 11.1973 61.4955 10.9644 61.3973 10.5955L61.3419 10.4305C61.2185 10.1296 61.0283 9.84875 60.7702 9.5881C59.7981 8.68526 58.5439 8.23321 57.0064 8.23321C54.4352 8.23321 52.8184 9.07435 52.1548 10.7579L52.044 11.0248L52.0251 11.1898C52.0251 11.2578 52.044 11.327 52.0805 11.395C52.117 11.4643 52.1976 11.497 52.3197 11.497H61.1013C61.2247 11.4983 61.3305 11.4781 61.4161 11.4366Z" fill="white"/>
<path d="M68.4005 18.4084C67.3 17.8128 66.4361 17.0057 65.8078 15.9857C65.1807 14.9658 64.8672 13.8199 64.8672 12.5469C64.8672 11.26 65.1807 10.1078 65.8078 9.08786C66.4349 8.06791 67.2987 7.26077 68.4005 6.66517C69.501 6.06957 70.735 5.7724 72.1 5.7724C73.465 5.7724 74.7317 5.9978 75.9003 6.44985C76.6507 6.75079 77.3332 7.16129 77.9477 7.68134L78.2978 7.98984C78.4212 8.11324 78.4829 8.2505 78.4829 8.40034C78.4829 8.50989 78.4577 8.61944 78.4086 8.72899L77.6342 9.96048C77.5599 10.0839 77.4894 10.1481 77.4214 10.1557C77.3534 10.1632 77.308 10.1657 77.2828 10.1657C77.1972 10.1657 77.104 10.1317 77.0058 10.0637L76.4518 9.59154C75.7756 9.08534 74.9697 8.68869 74.0354 8.40034C73.3831 8.19509 72.7372 8.09184 72.0987 8.09184C71.1392 8.09184 70.2931 8.28323 69.5615 8.66729C68.8299 9.05008 68.2632 9.57769 67.8641 10.2476C67.4636 10.9187 67.2647 11.6843 67.2647 12.5469C67.2647 13.3956 67.48 14.1549 67.9107 14.826C68.3413 15.4972 68.9256 16.0273 69.6635 16.4176C70.4013 16.808 71.2198 17.0032 72.1176 17.0032C73.3227 17.0032 74.3502 16.8042 75.1989 16.4076C75.4935 16.2703 75.7806 16.1268 76.0564 15.9769C76.3334 15.8258 76.5638 15.6961 76.7477 15.5866L77.0058 15.443C77.0914 15.3889 77.1783 15.3612 77.264 15.3612C77.4239 15.3612 77.5649 15.443 77.6883 15.608L78.4073 16.7576C78.4564 16.8395 78.4816 16.9289 78.4816 17.0246C78.4816 17.2021 78.4073 17.3331 78.26 17.4149L76.9315 18.1541C76.55 18.3455 76.1811 18.5167 75.8247 18.6678C74.7544 19.0922 73.5128 19.3037 72.0975 19.3037C70.7338 19.3012 69.501 19.004 68.4005 18.4084Z" fill="white"/>
<path d="M82.6447 18.5718C81.864 18.0316 81.2583 17.2609 80.8277 16.2624C80.5695 15.6882 80.3731 14.7702 80.2371 13.511L80.2006 13.1824C80.1754 12.8814 80.1641 12.5389 80.1641 12.1562V6.65347C80.1641 6.50236 80.2106 6.37644 80.3026 6.27319C80.3945 6.1712 80.5028 6.11957 80.6249 6.11957H81.9899C82.1246 6.11957 82.2354 6.1712 82.3223 6.27319C82.4079 6.37644 82.452 6.50236 82.452 6.65347C82.452 9.82916 82.4583 11.5165 82.4709 11.7142C82.4822 11.9131 82.4948 12.0869 82.5074 12.238L82.5628 12.6283C82.6371 13.2718 82.7781 13.9492 82.9872 14.6607C83.0854 15.0296 83.2151 15.3243 83.375 15.5434C83.9769 16.3921 84.9553 16.8164 86.3089 16.8164C87.1211 16.8164 87.8703 16.6313 88.5604 16.2624C89.7528 15.6051 90.4668 14.5448 90.701 13.0804L90.7564 12.7316C90.7929 12.2796 90.8118 11.9383 90.8118 11.7054V6.65347C90.8118 6.50236 90.8546 6.37644 90.9415 6.27319C91.0271 6.1712 91.1379 6.11957 91.2739 6.11957H92.6389C92.7623 6.11957 92.8693 6.1712 92.9613 6.27319C93.0532 6.37644 93.0998 6.50236 93.0998 6.65347V18.8488C93.0998 18.986 93.0532 19.1056 92.9613 19.2076C92.8693 19.3096 92.761 19.3613 92.6389 19.3613H91.2739C91.1379 19.3613 91.0271 19.3096 90.9415 19.2076C90.8559 19.1056 90.8118 18.986 90.8118 18.8488V17.3705C90.8118 17.1929 90.769 17.1035 90.6821 17.1035C90.633 17.1035 90.565 17.1375 90.4794 17.2055L90.2389 17.4309C90.079 17.5959 89.8699 17.7873 89.6118 18.0064C89.3537 18.2255 89.064 18.4244 88.7442 18.602C87.8225 19.122 86.6968 19.3827 85.3683 19.3827C84.3333 19.3827 83.4266 19.1132 82.6447 18.5718Z" fill="white"/>
<path d="M94.8359 19.4438C94.6999 19.4438 94.5891 19.3922 94.5034 19.2902C94.4178 19.1882 94.375 19.0673 94.375 18.9313V6.96143C94.375 6.81033 94.4178 6.68441 94.5034 6.58115C94.5891 6.47916 94.6999 6.42753 94.8359 6.42753H96.2197C96.3431 6.42753 96.4502 6.47916 96.5421 6.58115C96.634 6.68441 96.6806 6.81033 96.6806 6.96143V8.85022C96.6806 9.00133 96.7108 9.07562 96.7725 9.07562C96.8216 9.07562 96.8896 9.03407 96.9752 8.95222L97.2334 8.60342C97.4059 8.37047 97.6275 8.1073 97.8982 7.81265C98.169 7.518 98.4447 7.26868 98.728 7.06343C99.5767 6.46153 100.451 6.16058 101.348 6.16058C101.902 6.16058 102.436 6.22858 102.954 6.36583C103.225 6.43383 103.427 6.49553 103.562 6.55093L103.765 6.65293C103.974 6.79018 104.078 6.98787 104.078 7.24853C104.078 7.30393 103.949 7.89827 103.691 9.03407C103.629 9.25317 103.512 9.36272 103.34 9.36272C103.291 9.36272 103.23 9.34257 103.155 9.30102L102.953 9.19902C102.362 8.95222 101.716 8.83008 101.016 8.83008C100.131 8.83008 99.3614 9.04288 98.7104 9.46597C97.6149 10.1774 96.9765 11.108 96.7914 12.2576L96.7549 12.483C96.7058 12.7839 96.6806 13.1264 96.6806 13.5092V18.9288C96.6806 19.0661 96.634 19.1857 96.5421 19.2877C96.4502 19.3897 96.3419 19.4413 96.2197 19.4413H94.8359V19.4438Z" fill="white"/>
<path d="M105.649 3.12242C105.416 2.84918 105.299 2.48653 105.299 2.03448C105.299 1.65168 105.416 1.30918 105.649 1.00823C105.882 0.707286 106.239 0.556183 106.719 0.556183C107.199 0.556183 107.555 0.693435 107.79 0.96668C108.022 1.24118 108.14 1.59628 108.14 2.03448C108.14 2.41727 108.022 2.76355 107.79 3.07079C107.555 3.3793 107.199 3.53292 106.719 3.53292C106.239 3.53292 105.883 3.39693 105.649 3.12242ZM106.037 19.3623C105.913 19.3623 105.806 19.3106 105.714 19.2086C105.622 19.1066 105.576 18.987 105.576 18.8498V6.87986C105.576 6.72876 105.622 6.60661 105.714 6.51091C105.806 6.41522 105.915 6.36737 106.037 6.36737H107.402C107.536 6.36737 107.651 6.41522 107.743 6.51091C107.835 6.60661 107.881 6.73001 107.881 6.87986V18.8485C107.881 18.9858 107.835 19.1054 107.743 19.2074C107.651 19.3094 107.536 19.361 107.402 19.361H106.037V19.3623Z" fill="white"/>
<path d="M112.297 18.0893C111.731 17.4194 111.448 16.2962 111.448 14.7222V8.74734C111.448 8.61009 111.405 8.49047 111.318 8.38847C111.233 8.28648 111.133 8.23485 111.024 8.23485H109.492C109.382 8.23485 109.283 8.18322 109.198 8.08123C109.112 7.97923 109.069 7.85961 109.069 7.72236V6.53116C109.069 6.39391 109.112 6.27428 109.198 6.17229C109.283 6.07029 109.383 6.01867 109.492 6.01867H111.042C111.166 6.01867 111.27 5.97082 111.356 5.87512C111.442 5.77942 111.484 5.65602 111.484 5.50617V2.77372C111.484 2.63647 111.525 2.51685 111.604 2.41485C111.683 2.3116 111.785 2.26123 111.909 2.26123H113.329C113.453 2.26123 113.553 2.31286 113.634 2.41485C113.713 2.51685 113.754 2.63773 113.754 2.77372V5.50492C113.754 5.65602 113.796 5.77942 113.883 5.87386C113.969 5.96956 114.068 6.01741 114.178 6.01741H117.85C117.973 6.01741 118.074 6.06903 118.154 6.17103C118.234 6.27302 118.274 6.39391 118.274 6.5299V7.7211C118.274 7.85835 118.234 7.97797 118.154 8.07997C118.074 8.18196 117.973 8.23359 117.85 8.23359H114.178C114.067 8.23359 113.969 8.28522 113.883 8.38721C113.798 8.48921 113.754 8.61009 113.754 8.74608V14.454C113.754 15.3027 113.92 15.926 114.252 16.3227C114.436 16.5418 114.726 16.7054 115.12 16.815C115.514 16.9245 115.926 16.98 116.356 16.98C117.291 16.98 118.06 16.7684 118.662 16.3441H118.773V18.3563C118.773 18.5615 118.687 18.7189 118.515 18.8285C117.789 19.171 116.787 19.3422 115.508 19.3422C114.043 19.3422 112.974 18.9242 112.297 18.0893Z" fill="white"/>
<path d="M120.01 3.12242C119.777 2.84918 119.66 2.48653 119.66 2.03448C119.66 1.65168 119.777 1.30918 120.01 1.00823C120.243 0.707286 120.601 0.556183 121.081 0.556183C121.56 0.556183 121.917 0.693435 122.151 0.96668C122.384 1.24118 122.501 1.59628 122.501 2.03448C122.501 2.41727 122.384 2.76355 122.151 3.07079C121.917 3.3793 121.56 3.53292 121.081 3.53292C120.601 3.53292 120.244 3.39693 120.01 3.12242ZM120.398 19.3623C120.275 19.3623 120.168 19.3106 120.076 19.2086C119.984 19.1066 119.937 18.987 119.937 18.8498V6.87986C119.937 6.72876 119.984 6.60661 120.076 6.51091C120.168 6.41522 120.276 6.36737 120.398 6.36737H121.763C121.898 6.36737 122.012 6.41522 122.104 6.51091C122.196 6.60661 122.243 6.73001 122.243 6.87986V18.8485C122.243 18.9858 122.196 19.1054 122.104 19.2074C122.012 19.3094 121.898 19.361 121.763 19.361H120.398V19.3623Z" fill="white"/>
<path d="M127 18.5712C125.862 18.0033 124.97 17.2201 124.324 16.2203C123.678 15.2217 123.356 14.0847 123.356 12.8116C123.356 11.7174 123.55 10.7415 123.936 9.88653C124.324 9.03153 124.862 8.30624 125.551 7.71064C126.24 7.11504 127.03 6.66047 127.922 6.34567C128.813 6.03087 129.758 5.87347 130.754 5.87347C132.008 5.87347 133.146 6.1442 134.167 6.6844C135.189 7.22459 136 7.96122 136.603 8.89176C136.959 9.46722 137.217 10.2265 137.377 11.1709L137.45 11.6847C137.499 11.9856 137.524 12.3281 137.524 12.7109C137.524 12.8066 137.521 12.9161 137.516 13.0396C137.509 13.163 137.463 13.2763 137.377 13.3783C137.291 13.4803 137.186 13.5319 137.064 13.5319H126.049C125.864 13.5319 125.772 13.6137 125.772 13.7787C125.772 13.8467 125.784 13.916 125.809 13.9839L126.03 14.3743C126.165 14.6488 126.359 14.9485 126.611 15.2771C126.863 15.6058 127.161 15.879 127.506 16.0981C128.54 16.7277 129.831 17.0425 131.381 17.0425C132.524 17.0425 133.471 16.8713 134.222 16.5288C134.616 16.3374 134.953 16.1598 135.236 15.9949L135.661 15.7695C135.735 15.7279 135.808 15.7078 135.882 15.7078C136.055 15.7078 136.19 15.7972 136.288 15.9747L137.026 17.4732C136.804 17.6243 136.687 17.6986 136.676 17.6986C136.663 17.6986 136.654 17.7023 136.648 17.7086C136.642 17.7162 136.522 17.7943 136.288 17.9441C135.452 18.4642 134.461 18.8684 133.317 19.1555C132.543 19.333 131.755 19.4224 130.955 19.4224C129.457 19.4237 128.137 19.1391 127 18.5712ZM135.163 11.4366C135.249 11.395 135.292 11.3485 135.292 11.293C135.292 11.1973 135.243 10.9644 135.145 10.5955L135.089 10.4305C134.966 10.1296 134.776 9.84875 134.517 9.5881C133.545 8.68526 132.291 8.23321 130.754 8.23321C128.182 8.23321 126.566 9.07435 125.902 10.7579L125.791 11.0248L125.772 11.1898C125.772 11.2578 125.791 11.327 125.828 11.395C125.864 11.4643 125.945 11.497 126.067 11.497H134.849C134.973 11.4983 135.078 11.4781 135.163 11.4366Z" fill="white"/>
<path d="M141.05 18.7245C140.434 18.4915 139.77 18.0609 139.058 17.4313L138.67 17.1228C138.584 17.0271 138.54 16.8974 138.54 16.7324C138.54 16.6229 138.577 16.5272 138.651 16.4453L139.481 15.5425C139.579 15.4468 139.666 15.3926 139.739 15.3788C139.924 15.3788 140.059 15.4203 140.144 15.5022L140.402 15.7074C140.87 16.1041 141.33 16.4126 141.786 16.6317C142.537 16.988 143.385 17.1656 144.332 17.1656C145.23 17.1656 145.993 17.0699 146.62 16.8785C147.42 16.6052 147.819 16.1532 147.819 15.5236C147.819 15.1547 147.635 14.8562 147.265 14.6308C146.896 14.4054 146.41 14.2166 145.808 14.0667C145.205 13.9156 144.559 13.7859 143.871 13.6764C143.145 13.5265 142.46 13.3653 141.814 13.1941C141.168 13.0228 140.605 12.7974 140.125 12.5166C139.646 12.2358 139.268 11.8568 138.991 11.3771C138.714 10.8986 138.575 10.2816 138.575 9.52983C138.575 8.76299 138.825 8.09939 139.322 7.53779C139.821 6.97619 140.491 6.54177 141.333 6.23452C142.175 5.92602 143.125 5.7724 144.184 5.7724C145.636 5.7724 147.001 6.06705 148.28 6.65509C148.525 6.7785 148.901 7.01774 149.406 7.3741L149.591 7.53779C149.689 7.63349 149.744 7.72289 149.757 7.80474C149.757 8.00999 149.732 8.16109 149.684 8.25679L149.074 9.20119C148.976 9.35229 148.834 9.42658 148.65 9.42658C148.576 9.42658 148.503 9.39888 148.428 9.34473L148.17 9.15963C147.985 9.05008 147.755 8.92039 147.479 8.76928C147.202 8.61944 146.922 8.48848 146.639 8.37893C145.778 8.05028 144.961 7.88659 144.185 7.88659C142.648 7.88659 141.614 8.14724 141.086 8.66729C140.852 8.87254 140.736 9.13319 140.736 9.44799C140.76 9.81693 140.945 10.1292 141.29 10.3823C141.634 10.6354 142.092 10.8444 142.665 11.0081C143.237 11.1718 143.864 11.3154 144.548 11.4388C145.23 11.5622 145.891 11.7095 146.531 11.8808C147.171 12.052 147.751 12.2711 148.275 12.5381C148.797 12.805 149.215 13.1437 149.529 13.5542C149.843 13.9647 150 14.4646 150 15.0527C150 15.9832 149.759 16.7664 149.281 17.4036C148.801 18.0395 148.149 18.5154 147.325 18.8302C146.501 19.145 145.585 19.3024 144.577 19.3024C143.295 19.2999 142.12 19.1085 141.05 18.7245Z" fill="white"/>
</svg>
